HIERARCHY
ROOT Hips
{
	OFFSET 0.000000 89.005402 0.000000
	CHANNELS 6 Xposition Yposition Zposition Xrotation Yrotation Zrotation
	JOINT Spine
	{
		OFFSET 0.116900 10.681000 0.373400
		CHANNELS 3 Xrotation Yrotation Zrotation
		JOINT Spine1
		{
			OFFSET 0.000000 13.840401 0.053500
			CHANNELS 3 Xrotation Yrotation Zrotation
			JOINT Spine2
			{
				OFFSET 0.000000 14.712700 -0.366200
				CHANNELS 3 Xrotation Yrotation Zrotation
				JOINT Neck
				{
					OFFSET 0.000000 35.415497 -3.314200
					CHANNELS 3 Xrotation Yrotation Zrotation
					JOINT Head
					{
						OFFSET 0.000000 16.899200 1.218300
						CHANNELS 3 Xrotation Yrotation Zrotation
						JOINT HeadTop_End
						{
							OFFSET 0.000000 22.206207 2.192500
							CHANNELS 3 Xrotation Yrotation Zrotation
							End Site
							{
								OFFSET 0.000000 22.314178 0.000000
							}
						}
					}
				}
				JOINT LeftShoulder
				{
					OFFSET 12.896400 26.716293 -4.548400
					CHANNELS 3 Xrotation Yrotation Zrotation
					JOINT LeftArm
					{
						OFFSET 19.027000 -4.857010 -1.718400
						CHANNELS 3 Xrotation Yrotation Zrotation
						JOINT LeftForeArm
						{
							OFFSET 24.179897 0.000000 0.000000
							CHANNELS 3 Xrotation Yrotation Zrotation
							JOINT LeftHand
							{
								OFFSET 27.156403 0.000000 0.000000
								CHANNELS 3 Xrotation Yrotation Zrotation
								JOINT LeftHandIndex1
								{
									OFFSET 16.441200 0.000000 0.000000
									CHANNELS 3 Xrotation Yrotation Zrotation
									JOINT LeftHandIndex2
									{
										OFFSET 4.821899 0.000000 0.000000
										CHANNELS 3 Xrotation Yrotation Zrotation
										JOINT LeftHandIndex3
										{
											OFFSET 6.386497 0.000000 0.000000
											CHANNELS 3 Xrotation Yrotation Zrotation
											JOINT LeftHandIndex4
											{
												OFFSET 5.188988 0.000000 0.000000
												CHANNELS 3 Xrotation Yrotation Zrotation
												End Site
												{
													OFFSET -0.178703 5.185913 0.000177
												}
											}
										}
									}
								}
								JOINT LeftHandThumb1
								{
									OFFSET 6.534897 -5.032593 5.900300
									CHANNELS 3 Xrotation Yrotation Zrotation
									JOINT LeftHandThumb2
									{
										OFFSET 3.818176 -2.204422 2.204423
										CHANNELS 3 Xrotation Yrotation Zrotation
										JOINT LeftHandThumb3
										{
											OFFSET 3.252098 -1.877594 1.877601
											CHANNELS 3 Xrotation Yrotation Zrotation
											JOINT LeftHandThumb4
											{
												OFFSET 5.251778 -3.032120 3.032117
												CHANNELS 3 Xrotation Yrotation Zrotation
												End Site
												{
													OFFSET 0.000023 6.780014 0.000000
												}
											}
										}
									}
								}
							}
						}
					}
				}
				JOINT RightShoulder
				{
					OFFSET -12.896300 26.716293 -4.548400
					CHANNELS 3 Xrotation Yrotation Zrotation
					JOINT RightArm
					{
						OFFSET -19.027000 -4.857010 -1.718400
						CHANNELS 3 Xrotation Yrotation Zrotation
						JOINT RightForeArm
						{
							OFFSET -24.179897 0.000000 0.000000
							CHANNELS 3 Xrotation Yrotation Zrotation
							JOINT RightHand
							{
								OFFSET -27.156403 0.000000 0.000000
								CHANNELS 3 Xrotation Yrotation Zrotation
								JOINT RightHandThumb1
								{
									OFFSET -6.591202 -4.852203 5.988100
									CHANNELS 3 Xrotation Yrotation Zrotation
									JOINT RightHandThumb2
									{
										OFFSET -3.818176 -2.204422 2.204423
										CHANNELS 3 Xrotation Yrotation Zrotation
										JOINT RightHandThumb3
										{
											OFFSET -3.252098 -1.877594 1.877601
											CHANNELS 3 Xrotation Yrotation Zrotation
											JOINT RightHandThumb4
											{
												OFFSET -5.251778 -3.032120 3.032117
												CHANNELS 3 Xrotation Yrotation Zrotation
												End Site
												{
													OFFSET -0.000023 6.780014 0.000000
												}
											}
										}
									}
								}
								JOINT RightHandIndex1
								{
									OFFSET -16.029404 0.000000 0.000000
									CHANNELS 3 Xrotation Yrotation Zrotation
									JOINT RightHandIndex2
									{
										OFFSET -5.213303 0.000000 0.000000
										CHANNELS 3 Xrotation Yrotation Zrotation
										JOINT RightHandIndex3
										{
											OFFSET -6.386528 0.000000 0.000000
											CHANNELS 3 Xrotation Yrotation Zrotation
											JOINT RightHandIndex4
											{
												OFFSET -5.189026 0.000000 0.000000
												CHANNELS 3 Xrotation Yrotation Zrotation
												End Site
												{
													OFFSET 0.236702 5.183624 0.001972
												}
											}
										}
									}
								}
							}
						}
					}
				}
			}
		}
	}
	JOINT LeftUpLeg
	{
		OFFSET 14.073000 -7.904099 -1.463000
		CHANNELS 3 Xrotation Yrotation Zrotation
		JOINT LeftLeg
		{
			OFFSET -0.109806 -34.073280 4.093200
			CHANNELS 3 Xrotation Yrotation Zrotation
			JOINT LeftFoot
			{
				OFFSET 0.109806 -29.899420 -6.319000
				CHANNELS 3 Xrotation Yrotation Zrotation
				JOINT LeftToeBase
				{
					OFFSET 1.551100 -14.988700 20.535801
					CHANNELS 3 Xrotation Yrotation Zrotation
					JOINT LeftToe_End
					{
						OFFSET 0.221200 0.570800 13.248301
						CHANNELS 3 Xrotation Yrotation Zrotation
						End Site
						{
							OFFSET 0.000000 13.262435 0.000000
						}
					}
				}
			}
		}
	}
	JOINT RightUpLeg
	{
		OFFSET -13.839300 -7.904099 -1.463000
		CHANNELS 3 Xrotation Yrotation Zrotation
		JOINT RightLeg
		{
			OFFSET 0.109694 -34.073219 4.093300
			CHANNELS 3 Xrotation Yrotation Zrotation
			JOINT RightFoot
			{
				OFFSET -0.109694 -29.899384 -6.319200
				CHANNELS 3 Xrotation Yrotation Zrotation
				JOINT RightToeBase
				{
					OFFSET -1.551100 -14.988700 20.535801
					CHANNELS 3 Xrotation Yrotation Zrotation
					JOINT RightToe_End
					{
						OFFSET -0.221200 0.570900 13.248299
						CHANNELS 3 Xrotation Yrotation Zrotation
						End Site
						{
							OFFSET 0.000000 13.262440 0.000000
						}
					}
				}
			}
		}
	}
}
MOTION
Frames: 4
Frame Time: 0.033333
-0.607983 79.984375 0.469633 -6.088556 -43.050522 -3.827489 5.849319 4.641330 -1.435626 11.836549 9.037619 -3.083972 11.836549 9.037623 -3.083973 -4.303067 -1.272962 0.206312 -6.271930 20.437794 -0.377163 -0.000000 0.000000 0.000000 1.392969 -0.696042 -7.877908 -14.260102 2.394314 -63.277120 9.865075 -47.524924 5.927952 16.172845 0.915190 18.795441 -0.901960 -6.980931 -3.808426 0.031089 0.796200 -16.417937 -0.000000 0.000006 0.000000 0.000000 0.000002 -0.000003 9.163618 4.814108 -5.499028 -0.335288 0.032564 0.783687 0.000001 -0.000003 -0.000013 -0.000002 0.000002 0.000001 1.410918 9.461488 9.792750 1.220044 -24.270712 60.532900 -6.660701 41.858384 8.043839 6.225279 12.322336 11.673255 -8.895830 -4.903199 -0.383712 7.904860 -19.192523 -2.856840 0.000002 0.000002 -0.000007 0.000001 -0.000001 -0.000000 -1.085505 -1.215515 4.525225 0.142146 -1.115586 16.942542 -0.000001 0.000003 0.000003 0.000001 -0.000001 0.000001 -28.485480 5.182531 14.578183 34.635213 -14.334106 -0.205314 -3.671058 0.866327 -8.986218 -2.319081 -3.216968 0.802958 0.000000 -0.000001 0.000000 1.415345 -14.235281 -17.386276 32.173814 -7.618895 -0.172564 -24.800883 -6.086012 20.114627 -1.784962 -0.356539 0.333040 -0.000000 0.000001 0.000000 
-0.807743 79.616554 0.720335 -5.807862 -44.426945 -4.768585 5.388395 4.191528 -1.082705 10.890105 8.164840 -2.504714 10.890109 8.164837 -2.504712 -1.182001 0.403840 -1.443752 -5.006465 22.228123 -0.408487 -0.000001 0.000000 -0.000000 1.012558 3.586089 -10.629087 -11.204174 4.523381 -59.981820 12.377447 -47.048310 5.268056 16.594675 -0.479550 16.277580 -1.805543 -6.188373 -10.118051 -0.678549 0.381721 -21.769246 -0.000001 0.000007 0.000003 -0.000000 -0.000003 0.000002 8.908203 1.711828 -5.878933 3.431115 -0.420595 2.119457 -0.000003 -0.000005 -0.000012 0.000001 0.000001 0.000004 1.215839 11.707654 9.995996 -0.012239 -22.549081 59.129064 -3.795700 39.941795 5.477062 9.732331 4.245533 7.552722 -10.617597 -0.684164 -1.876109 9.039746 -13.736418 2.790221 0.000004 0.000003 -0.000006 0.000001 0.000001 0.000000 -0.940305 -0.198234 4.233408 -1.046956 -0.241404 27.880325 -0.000003 0.000001 0.000001 0.000001 -0.000001 0.000001 -32.485985 7.490388 17.144876 40.934072 -7.060084 -1.651633 -3.897653 0.373307 -7.719526 -5.340612 -2.803241 2.675980 -0.000000 0.000000 0.000000 0.831385 -13.673771 -16.527263 32.759459 -6.685895 -0.105198 -25.196793 -5.970880 19.721710 -1.784967 -0.356610 0.333048 0.000000 0.000000 -0.000000 
-1.041714 79.319038 1.044754 -4.319999 -45.849393 -5.132084 4.747560 3.691896 -0.751211 9.575033 7.200737 -1.848963 9.575031 7.200735 -1.848963 1.874215 2.259929 -3.139454 -2.984418 24.326613 -0.932996 -0.000001 -0.000000 0.000000 1.037109 8.102727 -13.461610 -9.350211 5.657504 -56.531918 14.085023 -44.808862 4.141034 16.702471 -1.462288 13.082361 -2.534959 -5.174734 -16.612878 -1.443559 0.073002 -27.378281 0.000001 0.000007 0.000000 0.000001 0.000001 -0.000000 8.621458 -1.526571 -6.131728 7.634178 -0.897010 3.673584 0.000001 -0.000004 -0.000016 -0.000001 -0.000000 0.000000 1.011836 13.821261 10.905209 -1.579835 -19.814271 57.286521 -0.472268 37.886530 3.056824 11.817291 -4.473551 3.447207 -12.444645 3.730234 -3.483381 10.204533 -7.483088 8.289403 0.000001 0.000003 -0.000005 0.000001 0.000000 -0.000001 -0.756299 0.826578 3.632899 -2.377696 0.265916 39.208633 -0.000004 0.000002 0.000002 0.000001 -0.000001 0.000001 -36.337668 8.522545 20.064507 46.084806 -1.322300 -3.575571 -4.671949 0.021163 -6.507648 -7.642549 -2.514501 4.189647 -0.000001 -0.000002 -0.000000 -0.305771 -13.074709 -15.212981 32.770910 -6.006990 -0.064057 -25.203412 -5.776355 19.351290 -1.784972 -0.356590 0.333040 0.000000 -0.000003 -0.000000 
-1.342082 78.832138 1.548505 -1.660468 -47.169177 -4.260643 3.879326 3.284379 -0.623538 7.809092 6.415689 -1.432468 7.809091 6.415694 -1.432466 4.246876 3.957491 -5.189987 -0.247512 25.186895 -1.396535 0.000002 0.000000 0.000000 1.246438 10.560408 -15.480540 -9.645422 5.236336 -52.441649 14.996172 -41.234269 2.781276 16.908258 -2.099018 9.964727 -2.988165 -4.093819 -23.076773 -2.207227 -0.111650 -32.996159 -0.000001 0.000004 0.000003 -0.000005 0.000001 0.000000 8.346426 -4.770549 -6.373010 11.867196 -1.310147 5.157300 -0.000000 -0.000005 -0.000014 0.000000 0.000000 -0.000001 0.762806 15.456037 12.460750 -3.207332 -16.024722 55.495919 2.775013 35.124104 1.733969 11.729620 -9.394935 -0.378005 -14.049985 6.961220 -3.546233 10.014484 -3.269839 12.122485 0.000001 0.000003 -0.000005 0.000000 0.000000 -0.000000 -0.727171 1.804693 4.538772 -3.515274 0.322774 48.751370 -0.000002 0.000001 -0.000001 0.000000 -0.000000 -0.000001 -39.724367 8.531744 23.309730 49.818949 3.636195 -5.768483 -5.875042 0.147162 -6.896650 -8.115467 -2.255103 4.716773 -0.000000 0.000000 -0.000000 -2.390877 -12.278530 -14.394566 33.461134 -5.537461 -0.043022 -25.615154 -5.754161 19.314349 -1.784955 -0.356551 0.333036 0.000000 -0.000001 -0.000000 
